<?xml version="1.0" encoding="iso-8859-1"?>
<svg width="73" height="26" viewBox="0 0 73 26" alt="République Française" class="sc-gWXbKe lnWeUC"><path d="M0.236 11H1.94V7.604H2.816L5.048 11H7.088L4.448 7.28C5.3 6.872 5.792 6.116 5.792 5.108C5.792 3.548 4.652 2.6 2.804 2.6H0.236V11ZM2.9 4.052C3.62 4.052 4.04 4.448 4.04 5.084C4.04 5.768 3.62 6.152 2.9 6.152H1.94V4.052H2.9ZM11.3373 1.88L12.8973 0.26H11.1453L9.78934 1.88H11.3373ZM8.13334 11H13.0293V9.548H9.83734V7.448H12.5493V5.996H9.83734V4.052H13.0293V2.6H8.13334V11ZM14.9994 11H16.7034V7.604H17.7714C19.6194 7.604 20.7474 6.656 20.7474 5.108C20.7474 3.548 19.6194 2.6 17.7714 2.6H14.9994V11ZM17.8434 4.052C18.5634 4.052 18.9954 4.448 18.9954 5.084C18.9954 5.768 18.5634 6.152 17.8434 6.152H16.7034V4.052H17.8434ZM27.1005 7.856C27.1005 8.984 26.4525 9.644 25.4085 9.644C24.3405 9.644 23.7045 8.984 23.7045 7.856V2.6H22.0005V7.712C22.0005 9.92 23.2965 11.24 25.3965 11.24C27.5085 11.24 28.8045 9.92 28.8045 7.712V2.6H27.1005V7.856ZM30.9113 11H33.4793C35.4113 11 36.5993 10.064 36.5993 8.528C36.5993 7.652 36.1073 6.932 35.2193 6.536C35.7953 6.14 36.1073 5.552 36.1073 4.88C36.1073 3.464 35.0513 2.6 33.2993 2.6H30.9113V11ZM33.3353 4.052C33.9833 4.052 34.3553 4.4 34.3553 4.964C34.3553 5.564 33.9833 5.888 33.3353 5.888H32.6153V4.052H33.3353ZM33.5753 7.352C34.3673 7.352 34.8473 7.736 34.8473 8.432C34.8473 9.128 34.3673 9.548 33.5753 9.548H32.6153V7.352H33.5753ZM38.3282 11H43.2242V9.452H40.0322V2.6H38.3282V11ZM44.7138 11H46.4178V2.6H44.7138V11ZM55.7997 10.784L55.2957 10.304C56.3277 9.488 56.9517 8.204 56.9517 6.8C56.9517 4.4 55.1397 2.36 52.4997 2.36C49.8477 2.36 48.0357 4.4 48.0357 6.8C48.0357 9.2 49.8477 11.24 52.4997 11.24C52.9077 11.24 53.2917 11.192 53.6517 11.096L54.6477 11.984C55.4757 12.704 56.3397 13.088 57.2757 13.088C57.6477 13.088 57.8877 13.04 58.1637 12.932V11.492C57.9837 11.564 57.7437 11.588 57.5637 11.588C57.0237 11.588 56.4477 11.372 55.7997 10.784ZM52.4997 9.644C50.9157 9.644 49.7877 8.408 49.7877 6.8C49.7877 5.192 50.9157 3.956 52.4997 3.956C54.0717 3.956 55.1997 5.192 55.1997 6.8C55.1997 8.408 54.0717 9.644 52.4997 9.644ZM63.5287 7.856C63.5287 8.984 62.8807 9.644 61.8367 9.644C60.7687 9.644 60.1327 8.984 60.1327 7.856V2.6H58.4287V7.712C58.4287 9.92 59.7247 11.24 61.8247 11.24C63.9367 11.24 65.2327 9.92 65.2327 7.712V2.6H63.5287V7.856ZM67.3394 11H72.2354V9.548H69.0434V7.448H71.7554V5.996H69.0434V4.052H72.2354V2.6H67.3394V11ZM0.236 24H1.94V20.448H4.652V18.996H1.94V17.052H5.132V15.6H0.236V24ZM6.62162 24H8.32562V20.604H9.20163L11.4336 24H13.4736L10.8336 20.28C11.6856 19.872 12.1776 19.116 12.1776 18.108C12.1776 16.548 11.0376 15.6 9.18962 15.6H6.62162V24ZM9.28563 17.052C10.0056 17.052 10.4256 17.448 10.4256 18.084C10.4256 18.768 10.0056 19.152 9.28563 19.152H8.32562V17.052H9.28563ZM13.8262 24H15.6382L16.4422 21.816H19.8022L20.6063 24H22.4182L19.2383 15.6H17.0062L13.8262 24ZM16.9702 20.364L18.1223 17.208L19.2742 20.364H16.9702ZM23.7054 24H25.4094V17.964L29.1654 24H31.3494V15.6H29.6454V21.612L25.8894 15.6H23.7054V24ZM37.4327 22.644C35.8487 22.644 34.7207 21.408 34.7207 19.8C34.7207 18.192 35.8487 16.956 37.4327 16.956C38.3927 16.956 39.1487 17.424 39.6287 18.108L40.9727 17.064C40.2047 16.044 38.9567 15.36 37.4327 15.36C34.7807 15.36 32.9687 17.4 32.9687 19.8C32.9687 21.936 34.4087 23.784 36.5927 24.168L35.5367 25.932H37.0487L38.0927 24.192C39.3167 24.036 40.3247 23.412 40.9727 22.524L39.6287 21.492C39.1487 22.176 38.3927 22.644 37.4327 22.644ZM41.3269 24H43.1389L43.9429 21.816H47.3029L48.1069 24H49.9189L46.7389 15.6H44.5069L41.3269 24ZM44.4709 20.364L45.6229 17.208L46.7749 20.364H44.4709ZM51.206 24H52.91V15.6H51.206V24ZM54.4919 22.836C55.2359 23.724 56.1959 24.24 57.6119 24.24C59.1479 24.24 60.3719 23.28 60.3959 21.72C60.3959 18.876 56.5559 19.224 56.5559 17.724C56.5559 17.232 56.9399 16.848 57.5279 16.848C58.1639 16.848 58.7159 17.256 59.2079 17.892L60.4559 16.776C59.7479 15.924 58.7759 15.36 57.5159 15.36C55.9199 15.36 54.8279 16.464 54.8279 17.796C54.8279 20.592 58.6679 20.256 58.6679 21.756C58.6679 22.368 58.2599 22.728 57.5879 22.728C56.9039 22.728 56.2319 22.344 55.7279 21.696L54.4919 22.836ZM62.1726 24H67.0686V22.548H63.8766V20.448H66.5886V18.996H63.8766V17.052H67.0686V15.6H62.1726V24Z" fill="black"></path></svg>
