<svg xmlns="http://www.w3.org/2000/svg" xmlns:xlink="http://www.w3.org/1999/xlink" width="998.18" height="757.997" viewBox="0 0 998.18 757.997">
  <defs>
    <linearGradient id="linear-gradient" x1="-151.3" y1="28.47" x2="-150.344" y2="28.47" gradientUnits="objectBoundingBox">
      <stop offset="0" stop-color="#fff"/>
      <stop offset="1" stop-color="#d1daff"/>
    </linearGradient>
  </defs>
  <g id="Groupe_17" data-name="Groupe 17" transform="translate(-54.4 -78.004)">
    <g id="Groupe_2" data-name="Groupe 2">
      <path id="Tracé_1" data-name="Tracé 1" d="M813.7,416.9C771,299.2,645.1,230.9,521.2,262.3,397.3,293.8,319.3,413.9,337.9,537.7Z" fill="#e25333" opacity="0.7"/>
      <g id="Groupe_1" data-name="Groupe 1">
        <path id="Tracé_2" data-name="Tracé 2" d="M336.7,527.7c.2,1.5.3,3,.5,4.5l27.7-1.4,22.5-5.7Z" fill="#fff"/>
        <path id="Tracé_3" data-name="Tracé 3" d="M335.4,509.9c.1,1.5.1,3,.2,4.6l117.1-5.9,22.5-5.7Z" fill="#fff"/>
        <path id="Tracé_4" data-name="Tracé 4" d="M335.4,492.1c-.1,1.5-.1,3-.1,4.6l205.2-10.4,22.5-5.7Z" fill="#fff"/>
        <path id="Tracé_5" data-name="Tracé 5" d="M336.7,474.2c-.2,1.5-.3,3.1-.5,4.6l292-14.8,22.5-5.7Z" fill="#fff"/>
        <path id="Tracé_6" data-name="Tracé 6" d="M339.4,456.2c-.3,1.5-.6,3.1-.8,4.6l377.3-19.1,22.5-5.7Z" fill="#fff"/>
        <path id="Tracé_7" data-name="Tracé 7" d="M342.3,442.7l461.4-23.3,10-2.5c-.3-.8-.6-1.7-.9-2.5L343.5,438.1C343.1,439.7,342.7,441.2,342.3,442.7Z" fill="#fff"/>
        <path id="Tracé_8" data-name="Tracé 8" d="M349.1,420c-.5,1.5-1.1,3.1-1.6,4.6l460-23.2c-.7-1.5-1.3-3-2-4.5Z" fill="#fff"/>
        <path id="Tracé_9" data-name="Tracé 9" d="M356.3,401.8c-.7,1.5-1.4,3.1-2,4.7L798.9,384c-.8-1.5-1.6-3-2.5-4.4Z" fill="#fff"/>
        <path id="Tracé_10" data-name="Tracé 10" d="M365.3,383.5c-.8,1.6-1.7,3.1-2.5,4.7l425.8-21.5c-1-1.5-2-3-3-4.4Z" fill="#fff"/>
        <path id="Tracé_11" data-name="Tracé 11" d="M376.4,365.1c-1,1.6-2.1,3.1-3.1,4.7l403-20.4c-1.2-1.5-2.3-2.9-3.5-4.4Z" fill="#fff"/>
        <path id="Tracé_12" data-name="Tracé 12" d="M390,346.5c-1.3,1.6-2.5,3.2-3.7,4.8l375.4-19c-1.4-1.5-2.8-2.9-4.2-4.4Z" fill="#fff"/>
        <path id="Tracé_13" data-name="Tracé 13" d="M406.6,327.8c-1.6,1.6-3.1,3.2-4.6,4.8l341.9-17.3c-1.7-1.5-3.4-2.9-5.1-4.3Z" fill="#fff"/>
        <path id="Tracé_14" data-name="Tracé 14" d="M427.6,308.9c-2,1.6-3.9,3.2-5.9,4.9l300.6-15.2c-2.1-1.4-4.2-2.9-6.4-4.2Z" fill="#fff"/>
        <path id="Tracé_15" data-name="Tracé 15" d="M455.3,289.7c-2.7,1.6-5.4,3.3-8,5l247.6-12.5c-2.8-1.4-5.6-2.8-8.4-4.1Z" fill="#fff"/>
        <path id="Tracé_16" data-name="Tracé 16" d="M497.3,269.7c-4.5,1.6-8.9,3.4-13.2,5.2l172.3-8.7c-4.5-1.4-9-2.7-13.6-3.9Z" fill="#fff"/>
      </g>
    </g>
    <g id="Groupe_4" data-name="Groupe 4">
      <path id="Tracé_17" data-name="Tracé 17" d="M349.2,560.5c42.7,117.7,168.6,186,292.5,154.6C765.6,683.6,843.5,563.5,825,439.7Z" fill="#e25333" opacity="0.7"/>
      <g id="Groupe_3" data-name="Groupe 3">
        <path id="Tracé_18" data-name="Tracé 18" d="M826.2,449.7c-.2-1.5-.3-3-.5-4.5L798,446.6l-22.5,5.7Z" fill="#fff"/>
        <path id="Tracé_19" data-name="Tracé 19" d="M827.5,467.5c-.1-1.5-.1-3-.2-4.6l-117.1,5.9-22.5,5.7Z" fill="#fff"/>
        <path id="Tracé_20" data-name="Tracé 20" d="M827.5,485.3c.1-1.5.1-3,.1-4.6L622.4,491.1l-22.5,5.7Z" fill="#fff"/>
        <path id="Tracé_21" data-name="Tracé 21" d="M826.2,503.2c.2-1.5.3-3.1.5-4.6L534.8,513.3,512.3,519Z" fill="#fff"/>
        <path id="Tracé_22" data-name="Tracé 22" d="M823.5,521.2c.3-1.5.6-3.1.8-4.6L447,535.7l-22.5,5.7Z" fill="#fff"/>
        <path id="Tracé_23" data-name="Tracé 23" d="M820.6,534.6,359.2,558l-10,2.5c.3.8.6,1.7.9,2.5l469.3-23.7C819.8,537.7,820.2,536.2,820.6,534.6Z" fill="#fff"/>
        <path id="Tracé_24" data-name="Tracé 24" d="M813.8,557.4c.5-1.5,1.1-3.1,1.6-4.6L355.4,576c.7,1.5,1.3,3,2,4.5Z" fill="#fff"/>
        <path id="Tracé_25" data-name="Tracé 25" d="M806.6,575.6c.7-1.5,1.4-3.1,2-4.7L364,593.4c.8,1.5,1.6,3,2.5,4.4Z" fill="#fff"/>
        <path id="Tracé_26" data-name="Tracé 26" d="M797.6,593.9c.8-1.6,1.7-3.1,2.5-4.7L374.3,610.7c1,1.5,2,3,3,4.4Z" fill="#fff"/>
        <path id="Tracé_27" data-name="Tracé 27" d="M786.5,612.3c1-1.6,2.1-3.1,3.1-4.7L386.6,628c1.2,1.5,2.3,2.9,3.5,4.4Z" fill="#fff"/>
        <path id="Tracé_28" data-name="Tracé 28" d="M773,630.9c1.3-1.6,2.5-3.2,3.7-4.8l-375.4,19c1.4,1.5,2.8,2.9,4.2,4.4Z" fill="#fff"/>
        <path id="Tracé_29" data-name="Tracé 29" d="M756.3,649.6c1.6-1.6,3.1-3.2,4.6-4.8L419,662c1.7,1.5,3.4,2.9,5.1,4.3Z" fill="#fff"/>
        <path id="Tracé_30" data-name="Tracé 30" d="M735.3,668.5c2-1.6,3.9-3.2,5.9-4.9L440.6,678.8c2.1,1.4,4.2,2.9,6.4,4.2Z" fill="#fff"/>
        <path id="Tracé_31" data-name="Tracé 31" d="M707.6,687.7c2.7-1.6,5.4-3.3,8-5L468,695.3c2.8,1.4,5.6,2.8,8.4,4.1Z" fill="#fff"/>
        <path id="Tracé_32" data-name="Tracé 32" d="M665.6,707.7c4.5-1.6,8.9-3.4,13.2-5.2l-172.3,8.7c4.5,1.4,9,2.7,13.6,3.9Z" fill="#fff"/>
      </g>
    </g>
    <g id="Groupe_16" data-name="Groupe 16">
      <path id="Tracé_33" data-name="Tracé 33" d="M977.2,459.1c-.5-14.7-1.4-29.4-2.7-44.2-7.6-82-29.3-164.2-71.4-233.6-3.1-5.1-6.3-10.2-9.7-15.1-28.5-42.3-69.8-76.7-117.8-85.8-39.9-7.5-80.6,3.3-116.2,22.7-35.8,19.5-63,49.1-95.6,73.3-89.5,66.5-212.1,67.7-298,139.5C181.5,386.3,151.7,518.1,187,626.1,221.1,731.7,292,803.9,385.7,836H679.5C870.1,788.3,928,663.7,947.8,614.4,967.3,566,978.9,511.4,977.2,459.1Z" fill="#cce9ff"/>
      <g id="Groupe_5" data-name="Groupe 5">
        <path id="Tracé_34" data-name="Tracé 34" d="M510.1,182.9a32.722,32.722,0,0,1,32.4-28.6,30.781,30.781,0,0,1,6.8.7,51.812,51.812,0,0,1,103.1,1.3,37.389,37.389,0,0,1,7.5-.7,38.719,38.719,0,0,1,23.4,7.8,38,38,0,0,1,71.2,18.5v1Z" fill="#0b4870" stroke="#fff" stroke-miterlimit="10" stroke-width="0.5"/>
      </g>
      <g id="Groupe_6" data-name="Groupe 6">
        <path id="Tracé_35" data-name="Tracé 35" d="M577,202.2a32.722,32.722,0,0,1,32.4-28.6,30.781,30.781,0,0,1,6.8.7,51.812,51.812,0,0,1,103.1,1.3,37.389,37.389,0,0,1,7.5-.7,38.719,38.719,0,0,1,23.4,7.8,38,38,0,0,1,71.2,18.5v1Z" fill="#2a94f4"/>
      </g>
      <g id="Groupe_7" data-name="Groupe 7">
        <path id="Tracé_36" data-name="Tracé 36" d="M261.3,753.7a32.106,32.106,0,0,1,31.9-28.1,29.89,29.89,0,0,1,6.7.7,51.005,51.005,0,0,1,101.5,1.3,36.4,36.4,0,0,1,7.4-.7,38.622,38.622,0,0,1,23.1,7.7A37.417,37.417,0,0,1,502,752.8v1H261.3Z" fill="#2a94f4"/>
      </g>
      <g id="Groupe_8" data-name="Groupe 8">
        <path id="Tracé_37" data-name="Tracé 37" d="M175,774.3a32.19,32.19,0,0,1,31.9-28.1,28.419,28.419,0,0,1,6.6.7,50.906,50.906,0,0,1,101.3,1.3,36.4,36.4,0,0,1,7.4-.7,38.325,38.325,0,0,1,23,7.7,37.354,37.354,0,0,1,70,18.2v.9H175Z" fill="#0b4870" stroke="#fff" stroke-miterlimit="10" stroke-width="0.5"/>
      </g>
      <path id="Tracé_38" data-name="Tracé 38" d="M326.4,495.2c-1.5,0-49,7.3-97.7-21.6-48.7-29-106.3-68.4-129.8-70.2-23.5-1.9-44.5,7-44.5,7S165.8,559.6,167,559.7c1.1.1,96.2-12.7,100.4-15.4s51.2-22.7,51.2-22.7Z" fill="#ffbe55"/>
      <path id="Tracé_39" data-name="Tracé 39" d="M733.2,427s-140-63.5-188.7-48.1L489.3,394l116.1,67.9Z" fill="#fff"/>
      <path id="Tracé_40" data-name="Tracé 40" d="M760,480.7c19-6.8,298-68.2,292.5-111.7-5.4-43.5-99.3-47.2-208.1-17.5s-424,115.9-522.7,142.9-219,86.8-219,86.8l3.9,14.2s204.3,4.8,293.6-19.6C489.6,551.4,760,480.7,760,480.7Z" fill="#f7f7f7"/>
      <path id="Tracé_41" data-name="Tracé 41" d="M312.5,589.6c12.6-50.1,118.4-114.4,256.2-152.1C720.6,396,855.3,402,874.9,450.3,818.1,466.2,767.7,478,760,480.7c0,0-270.4,70.7-359.8,95.1C376.9,582.2,345.8,586.6,312.5,589.6Z" fill="#ffbe55"/>
      <path id="Tracé_42" data-name="Tracé 42" d="M171.2,569.6,290,533.8s-2.7,30.6-14.7,58.6c-35.3,2.1-70.6,3-99.7,3.3Z" fill="#d3d3d3"/>
      <path id="Tracé_43" data-name="Tracé 43" d="M290,533.8s-48.8,82.2-99.6,89.4c-40.1,3.5-38.2-.5-38.2-.5l17.5-53.6Z" fill="#ffbe55"/>
      <path id="Tracé_44" data-name="Tracé 44" d="M144.9,595.8c-23.5,0-38.3-.4-38.3-.4l-3.9-14.2s12.9-6.4,33.8-16Z" fill="#d3d3d3"/>
      <path id="Tracé_45" data-name="Tracé 45" d="M761.4,493.7c2.5-2-5.4-43.7-9-48.1s-41.7-8.8-99.4,27.2c-5.1,4.2-8.9,7.2-11.5,9.2a7.718,7.718,0,0,0-2.7,8l8.7,31.7a7.76,7.76,0,0,0,8.3,5.6C675.3,524.9,733.3,516.3,761.4,493.7Z" fill="#fff"/>
      <path id="Tracé_46" data-name="Tracé 46" d="M641.6,481.9c2.6-2,6.4-5,11.5-9.2,36.6-22.8,65.3-29.4,82.3-30-3.2,10.9-13.7,44.1-29.3,75.1a374.788,374.788,0,0,1-50.3,9.3,7.662,7.662,0,0,1-8.3-5.6l-8.7-31.7A7.869,7.869,0,0,1,641.6,481.9Z" fill="#d3d3d3"/>
      <path id="Tracé_47" data-name="Tracé 47" d="M640.3,514.9l19-1.3a5.35,5.35,0,0,0,4.8-6.8l-2.9-10.4a5.393,5.393,0,0,0-7.6-3.4l-17.1,8.6a5.4,5.4,0,0,0-2.8,6.2l.9,3.2A5.509,5.509,0,0,0,640.3,514.9Z" fill="url(#linear-gradient)"/>
      <path id="Tracé_48" data-name="Tracé 48" d="M1034.6,344.6l-47.5,13a5.608,5.608,0,0,1-4.2-.5l-8.4-4.7a3.055,3.055,0,0,1,.7-5.6l37.7-10.3A83.28,83.28,0,0,1,1034.6,344.6Z" fill="#0b4870" stroke="#fff" stroke-miterlimit="10" stroke-width="0.5"/>
      <g id="Groupe_9" data-name="Groupe 9">
        <path id="Tracé_49" data-name="Tracé 49" d="M932.7,388.9a6.959,6.959,0,0,1-3.3-4.2l-8-29.1a6.579,6.579,0,0,1,.7-5.3,6.959,6.959,0,0,1,4.2-3.3l16.5-4.5a6.579,6.579,0,0,1,5.3.7,6.959,6.959,0,0,1,3.3,4.2l8,29.1a7.087,7.087,0,0,1-4.9,8.6L938,389.6a5.537,5.537,0,0,1-1.8.2A7.3,7.3,0,0,1,932.7,388.9Zm20.9-7.1a3.593,3.593,0,0,0,2.5-4.4l-8-29.1a3.262,3.262,0,0,0-1.7-2.1,3.2,3.2,0,0,0-2.7-.3l-16.5,4.5a3.593,3.593,0,0,0-2.5,4.4l8,29.1a3.262,3.262,0,0,0,1.7,2.1,3.2,3.2,0,0,0,2.7.3Z" fill="#d3d3d3"/>
      </g>
      <g id="Groupe_10" data-name="Groupe 10">
        <path id="Tracé_50" data-name="Tracé 50" d="M782.1,430.1a6.959,6.959,0,0,1-3.3-4.2l-8-29.1a6.579,6.579,0,0,1,.7-5.3,6.959,6.959,0,0,1,4.2-3.3l16.5-4.5a6.579,6.579,0,0,1,5.3.7,6.959,6.959,0,0,1,3.3,4.2l8,29.1a6.579,6.579,0,0,1-.7,5.3,6.959,6.959,0,0,1-4.2,3.3l-16.5,4.5a5.537,5.537,0,0,1-1.8.2A7.018,7.018,0,0,1,782.1,430.1Zm20.9-7.2a2.994,2.994,0,0,0,2.1-1.7,3.2,3.2,0,0,0,.3-2.7l-8-29.1a3.262,3.262,0,0,0-1.7-2.1,3.2,3.2,0,0,0-2.7-.3l-16.5,4.5a3.593,3.593,0,0,0-2.5,4.4l8,29.1a3.262,3.262,0,0,0,1.7,2.1,3.2,3.2,0,0,0,2.7.3Z" fill="#d3d3d3"/>
      </g>
      <g id="Groupe_11" data-name="Groupe 11">
        <path id="Tracé_51" data-name="Tracé 51" d="M493.9,508.9a6.959,6.959,0,0,1-3.3-4.2l-8-29.1a7.087,7.087,0,0,1,4.9-8.6l16.5-4.5a6.579,6.579,0,0,1,5.3.7,6.959,6.959,0,0,1,3.3,4.2l8,29.1a6.579,6.579,0,0,1-.7,5.3,6.959,6.959,0,0,1-4.2,3.3l-16.5,4.5a5.537,5.537,0,0,1-1.8.2A7.3,7.3,0,0,1,493.9,508.9Zm20.9-7.2a3.262,3.262,0,0,0,2.1-1.7,3.2,3.2,0,0,0,.3-2.7l-8-29.1a2.994,2.994,0,0,0-1.7-2.1,3.2,3.2,0,0,0-2.7-.3l-16.5,4.5a3.593,3.593,0,0,0-2.5,4.4l8,29.1a2.994,2.994,0,0,0,1.7,2.1,3.2,3.2,0,0,0,2.7.3Z" fill="#fff"/>
      </g>
      <g id="Groupe_12" data-name="Groupe 12">
        <path id="Tracé_52" data-name="Tracé 52" d="M907,377.4h0a3.448,3.448,0,0,0,2.4-4.2l-1.2-4.5a3.448,3.448,0,0,0-4.2-2.4h0a3.448,3.448,0,0,0-2.4,4.2l1.2,4.5A3.4,3.4,0,0,0,907,377.4Z" fill="#fff"/>
        <path id="Tracé_53" data-name="Tracé 53" d="M895.8,380.5h0a3.448,3.448,0,0,0,2.4-4.2l-1.2-4.5a3.448,3.448,0,0,0-4.2-2.4h0a3.448,3.448,0,0,0-2.4,4.2l1.2,4.5A3.358,3.358,0,0,0,895.8,380.5Z" fill="#fff"/>
        <path id="Tracé_54" data-name="Tracé 54" d="M895.8,380.5h0a3.448,3.448,0,0,0,2.4-4.2l-1.2-4.5a3.448,3.448,0,0,0-4.2-2.4h0a3.448,3.448,0,0,0-2.4,4.2l1.2,4.5A3.358,3.358,0,0,0,895.8,380.5Z" fill="#fff"/>
        <path id="Tracé_55" data-name="Tracé 55" d="M884.5,383.5h0a3.448,3.448,0,0,0,2.4-4.2l-1.2-4.5a3.448,3.448,0,0,0-4.2-2.4h0a3.448,3.448,0,0,0-2.4,4.2l1.2,4.5A3.37,3.37,0,0,0,884.5,383.5Z" fill="#fff"/>
        <path id="Tracé_56" data-name="Tracé 56" d="M873.3,386.6h0a3.448,3.448,0,0,0,2.4-4.2l-1.2-4.5a3.448,3.448,0,0,0-4.2-2.4h0a3.448,3.448,0,0,0-2.4,4.2l1.2,4.5A3.448,3.448,0,0,0,873.3,386.6Z" fill="#fff"/>
        <path id="Tracé_57" data-name="Tracé 57" d="M862.1,389.7h0a3.448,3.448,0,0,0,2.4-4.2l-1.2-4.5a3.448,3.448,0,0,0-4.2-2.4h0a3.448,3.448,0,0,0-2.4,4.2l1.2,4.5A3.448,3.448,0,0,0,862.1,389.7Z" fill="#fff"/>
        <path id="Tracé_58" data-name="Tracé 58" d="M850.9,392.7h0a3.448,3.448,0,0,0,2.4-4.2l-1.2-4.5a3.448,3.448,0,0,0-4.2-2.4h0a3.448,3.448,0,0,0-2.4,4.2l1.2,4.5A3.37,3.37,0,0,0,850.9,392.7Z" fill="#fff"/>
        <path id="Tracé_59" data-name="Tracé 59" d="M839.7,395.8h0a3.448,3.448,0,0,0,2.4-4.2l-1.2-4.5a3.448,3.448,0,0,0-4.2-2.4h0a3.448,3.448,0,0,0-2.4,4.2l1.2,4.5A3.448,3.448,0,0,0,839.7,395.8Z" fill="#fff"/>
        <path id="Tracé_60" data-name="Tracé 60" d="M828.5,398.9h0a3.448,3.448,0,0,0,2.4-4.2l-1.2-4.5a3.448,3.448,0,0,0-4.2-2.4h0a3.448,3.448,0,0,0-2.4,4.2l1.2,4.5A3.448,3.448,0,0,0,828.5,398.9Z" fill="#fff"/>
        <path id="Tracé_61" data-name="Tracé 61" d="M763,416.8h0a3.448,3.448,0,0,0,2.4-4.2l-1.2-4.5a3.448,3.448,0,0,0-4.2-2.4h0a3.448,3.448,0,0,0-2.4,4.2l1.2,4.5A3.448,3.448,0,0,0,763,416.8Z" fill="#fff"/>
        <path id="Tracé_62" data-name="Tracé 62" d="M751.8,419.8h0a3.448,3.448,0,0,0,2.4-4.2l-1.2-4.5a3.448,3.448,0,0,0-4.2-2.4h0a3.448,3.448,0,0,0-2.4,4.2l1.2,4.5A3.328,3.328,0,0,0,751.8,419.8Z" fill="#fff"/>
        <path id="Tracé_63" data-name="Tracé 63" d="M751.8,419.8h0a3.448,3.448,0,0,0,2.4-4.2l-1.2-4.5a3.448,3.448,0,0,0-4.2-2.4h0a3.448,3.448,0,0,0-2.4,4.2l1.2,4.5A3.328,3.328,0,0,0,751.8,419.8Z" fill="#fff"/>
        <path id="Tracé_64" data-name="Tracé 64" d="M740.6,422.9h0a3.448,3.448,0,0,0,2.4-4.2l-1.2-4.5a3.448,3.448,0,0,0-4.2-2.4h0a3.448,3.448,0,0,0-2.4,4.2l1.2,4.5A3.358,3.358,0,0,0,740.6,422.9Z" fill="#fff"/>
        <path id="Tracé_65" data-name="Tracé 65" d="M729.3,426h0a3.448,3.448,0,0,0,2.4-4.2l-1.2-4.5a3.448,3.448,0,0,0-4.2-2.4h0a3.448,3.448,0,0,0-2.4,4.2l1.2,4.5A3.448,3.448,0,0,0,729.3,426Z" fill="#fff"/>
        <path id="Tracé_66" data-name="Tracé 66" d="M718.1,429h0a3.448,3.448,0,0,0,2.4-4.2l-1.2-4.5a3.448,3.448,0,0,0-4.2-2.4h0a3.448,3.448,0,0,0-2.4,4.2l1.2,4.5A3.37,3.37,0,0,0,718.1,429Z" fill="#fff"/>
        <path id="Tracé_67" data-name="Tracé 67" d="M706.9,432.1h0a3.448,3.448,0,0,0,2.4-4.2l-1.2-4.5a3.448,3.448,0,0,0-4.2-2.4h0a3.448,3.448,0,0,0-2.4,4.2l1.2,4.5A3.448,3.448,0,0,0,706.9,432.1Z" fill="#fff"/>
        <path id="Tracé_68" data-name="Tracé 68" d="M695.7,435.2h0a3.448,3.448,0,0,0,2.4-4.2l-1.2-4.5a3.448,3.448,0,0,0-4.2-2.4h0a3.448,3.448,0,0,0-2.4,4.2l1.2,4.5A3.448,3.448,0,0,0,695.7,435.2Z" fill="#fff"/>
        <path id="Tracé_69" data-name="Tracé 69" d="M684.5,438.2h0a3.448,3.448,0,0,0,2.4-4.2l-1.2-4.5a3.448,3.448,0,0,0-4.2-2.4h0a3.448,3.448,0,0,0-2.4,4.2l1.2,4.5A3.37,3.37,0,0,0,684.5,438.2Z" fill="#fff"/>
        <path id="Tracé_70" data-name="Tracé 70" d="M684.4,438.2h0a3.448,3.448,0,0,0,2.4-4.2l-1.2-4.5a3.448,3.448,0,0,0-4.2-2.4h0a3.448,3.448,0,0,0-2.4,4.2l1.2,4.5A3.37,3.37,0,0,0,684.4,438.2Z" fill="#fff"/>
        <path id="Tracé_71" data-name="Tracé 71" d="M673.2,441.3h0a3.448,3.448,0,0,0,2.4-4.2l-1.2-4.5a3.448,3.448,0,0,0-4.2-2.4h0a3.448,3.448,0,0,0-2.4,4.2l1.2,4.5A3.448,3.448,0,0,0,673.2,441.3Z" fill="#fff"/>
        <path id="Tracé_72" data-name="Tracé 72" d="M673.2,441.3h0a3.448,3.448,0,0,0,2.4-4.2l-1.2-4.5a3.448,3.448,0,0,0-4.2-2.4h0a3.448,3.448,0,0,0-2.4,4.2l1.2,4.5A3.448,3.448,0,0,0,673.2,441.3Z" fill="#fff"/>
        <path id="Tracé_73" data-name="Tracé 73" d="M662,444.4h0a3.448,3.448,0,0,0,2.4-4.2l-1.2-4.5a3.448,3.448,0,0,0-4.2-2.4h0a3.448,3.448,0,0,0-2.4,4.2l1.2,4.5A3.448,3.448,0,0,0,662,444.4Z" fill="#fff"/>
        <path id="Tracé_74" data-name="Tracé 74" d="M650.8,447.4h0a3.448,3.448,0,0,0,2.4-4.2l-1.2-4.5a3.448,3.448,0,0,0-4.2-2.4h0a3.448,3.448,0,0,0-2.4,4.2l1.2,4.5A3.37,3.37,0,0,0,650.8,447.4Z" fill="#fff"/>
        <path id="Tracé_75" data-name="Tracé 75" d="M639.6,450.5h0a3.448,3.448,0,0,0,2.4-4.2l-1.2-4.5a3.448,3.448,0,0,0-4.2-2.4h0a3.448,3.448,0,0,0-2.4,4.2l1.2,4.5A3.4,3.4,0,0,0,639.6,450.5Z" fill="#fff"/>
        <path id="Tracé_76" data-name="Tracé 76" d="M628.4,453.6h0a3.448,3.448,0,0,0,2.4-4.2l-1.2-4.5a3.448,3.448,0,0,0-4.2-2.4h0a3.448,3.448,0,0,0-2.4,4.2l1.2,4.5A3.358,3.358,0,0,0,628.4,453.6Z" fill="#fff"/>
        <path id="Tracé_77" data-name="Tracé 77" d="M617.1,456.6h0a3.448,3.448,0,0,0,2.4-4.2l-1.2-4.5a3.448,3.448,0,0,0-4.2-2.4h0a3.448,3.448,0,0,0-2.4,4.2l1.2,4.5A3.37,3.37,0,0,0,617.1,456.6Z" fill="#fff"/>
        <path id="Tracé_78" data-name="Tracé 78" d="M605.9,459.7h0a3.448,3.448,0,0,0,2.4-4.2l-1.2-4.5a3.448,3.448,0,0,0-4.2-2.4h0a3.448,3.448,0,0,0-2.4,4.2l1.2,4.5A3.448,3.448,0,0,0,605.9,459.7Z" fill="#fff"/>
        <path id="Tracé_79" data-name="Tracé 79" d="M684.4,438.2h0a3.448,3.448,0,0,0,2.4-4.2l-1.2-4.5a3.448,3.448,0,0,0-4.2-2.4h0a3.448,3.448,0,0,0-2.4,4.2l1.2,4.5A3.37,3.37,0,0,0,684.4,438.2Z" fill="#fff"/>
        <path id="Tracé_80" data-name="Tracé 80" d="M673.2,441.3h0a3.448,3.448,0,0,0,2.4-4.2l-1.2-4.5a3.448,3.448,0,0,0-4.2-2.4h0a3.448,3.448,0,0,0-2.4,4.2l1.2,4.5A3.448,3.448,0,0,0,673.2,441.3Z" fill="#fff"/>
        <path id="Tracé_81" data-name="Tracé 81" d="M673.2,441.3h0a3.448,3.448,0,0,0,2.4-4.2l-1.2-4.5a3.448,3.448,0,0,0-4.2-2.4h0a3.448,3.448,0,0,0-2.4,4.2l1.2,4.5A3.448,3.448,0,0,0,673.2,441.3Z" fill="#fff"/>
        <path id="Tracé_82" data-name="Tracé 82" d="M662,444.4h0a3.448,3.448,0,0,0,2.4-4.2l-1.2-4.5a3.448,3.448,0,0,0-4.2-2.4h0a3.448,3.448,0,0,0-2.4,4.2l1.2,4.5A3.448,3.448,0,0,0,662,444.4Z" fill="#fff"/>
        <path id="Tracé_83" data-name="Tracé 83" d="M650.8,447.4h0a3.448,3.448,0,0,0,2.4-4.2l-1.2-4.5a3.448,3.448,0,0,0-4.2-2.4h0a3.448,3.448,0,0,0-2.4,4.2l1.2,4.5A3.37,3.37,0,0,0,650.8,447.4Z" fill="#fff"/>
        <path id="Tracé_84" data-name="Tracé 84" d="M639.6,450.5h0a3.448,3.448,0,0,0,2.4-4.2l-1.2-4.5a3.448,3.448,0,0,0-4.2-2.4h0a3.448,3.448,0,0,0-2.4,4.2l1.2,4.5A3.4,3.4,0,0,0,639.6,450.5Z" fill="#fff"/>
        <path id="Tracé_85" data-name="Tracé 85" d="M628.4,453.6h0a3.448,3.448,0,0,0,2.4-4.2l-1.2-4.5a3.448,3.448,0,0,0-4.2-2.4h0a3.448,3.448,0,0,0-2.4,4.2l1.2,4.5A3.358,3.358,0,0,0,628.4,453.6Z" fill="#fff"/>
        <path id="Tracé_86" data-name="Tracé 86" d="M617.1,456.6h0a3.448,3.448,0,0,0,2.4-4.2l-1.2-4.5a3.448,3.448,0,0,0-4.2-2.4h0a3.448,3.448,0,0,0-2.4,4.2l1.2,4.5A3.37,3.37,0,0,0,617.1,456.6Z" fill="#fff"/>
        <path id="Tracé_87" data-name="Tracé 87" d="M605.9,459.7h0a3.448,3.448,0,0,0,2.4-4.2l-1.2-4.5a3.448,3.448,0,0,0-4.2-2.4h0a3.448,3.448,0,0,0-2.4,4.2l1.2,4.5A3.448,3.448,0,0,0,605.9,459.7Z" fill="#fff"/>
        <path id="Tracé_88" data-name="Tracé 88" d="M605.9,459.7h0a3.448,3.448,0,0,0,2.4-4.2L607,451a3.448,3.448,0,0,0-4.2-2.4h0a3.448,3.448,0,0,0-2.4,4.2l1.2,4.5A3.508,3.508,0,0,0,605.9,459.7Z" fill="#fff"/>
        <path id="Tracé_89" data-name="Tracé 89" d="M594.6,462.8h0a3.448,3.448,0,0,0,2.4-4.2l-1.2-4.5a3.448,3.448,0,0,0-4.2-2.4h0a3.448,3.448,0,0,0-2.4,4.2l1.2,4.5A3.448,3.448,0,0,0,594.6,462.8Z" fill="#fff"/>
        <path id="Tracé_90" data-name="Tracé 90" d="M594.6,462.8h0a3.448,3.448,0,0,0,2.4-4.2l-1.2-4.5a3.448,3.448,0,0,0-4.2-2.4h0a3.448,3.448,0,0,0-2.4,4.2l1.2,4.5A3.448,3.448,0,0,0,594.6,462.8Z" fill="#fff"/>
        <path id="Tracé_91" data-name="Tracé 91" d="M583.4,465.9h0a3.448,3.448,0,0,0,2.4-4.2l-1.2-4.5a3.448,3.448,0,0,0-4.2-2.4h0A3.448,3.448,0,0,0,578,459l1.2,4.5A3.448,3.448,0,0,0,583.4,465.9Z" fill="#fff"/>
        <path id="Tracé_92" data-name="Tracé 92" d="M572.2,468.9h0a3.448,3.448,0,0,0,2.4-4.2l-1.2-4.5a3.448,3.448,0,0,0-4.2-2.4h0a3.448,3.448,0,0,0-2.4,4.2l1.2,4.5A3.448,3.448,0,0,0,572.2,468.9Z" fill="#fff"/>
        <path id="Tracé_93" data-name="Tracé 93" d="M561,472h0a3.448,3.448,0,0,0,2.4-4.2l-1.2-4.5a3.448,3.448,0,0,0-4.2-2.4h0a3.448,3.448,0,0,0-2.4,4.2l1.2,4.5A3.448,3.448,0,0,0,561,472Z" fill="#fff"/>
        <path id="Tracé_94" data-name="Tracé 94" d="M549.8,475h0a3.448,3.448,0,0,0,2.4-4.2l-1.2-4.5a3.448,3.448,0,0,0-4.2-2.4h0a3.448,3.448,0,0,0-2.4,4.2l1.2,4.5A3.37,3.37,0,0,0,549.8,475Z" fill="#fff"/>
        <path id="Tracé_95" data-name="Tracé 95" d="M538.6,478.1h0a3.448,3.448,0,0,0,2.4-4.2l-1.2-4.5a3.448,3.448,0,0,0-4.2-2.4h0a3.448,3.448,0,0,0-2.4,4.2l1.2,4.5A3.448,3.448,0,0,0,538.6,478.1Z" fill="#fff"/>
        <path id="Tracé_96" data-name="Tracé 96" d="M527.4,481.2h0a3.448,3.448,0,0,0,2.4-4.2l-1.2-4.5a3.448,3.448,0,0,0-4.2-2.4h0a3.448,3.448,0,0,0-2.4,4.2l1.2,4.5A3.4,3.4,0,0,0,527.4,481.2Z" fill="#fff"/>
        <path id="Tracé_97" data-name="Tracé 97" d="M474.8,495.6h0a3.448,3.448,0,0,0,2.4-4.2l-1.2-4.5a3.448,3.448,0,0,0-4.2-2.4h0a3.448,3.448,0,0,0-2.4,4.2l1.2,4.5A3.448,3.448,0,0,0,474.8,495.6Z" fill="#fff"/>
        <path id="Tracé_98" data-name="Tracé 98" d="M463.6,498.6h0a3.448,3.448,0,0,0,2.4-4.2l-1.2-4.5a3.448,3.448,0,0,0-4.2-2.4h0a3.448,3.448,0,0,0-2.4,4.2l1.2,4.5A3.4,3.4,0,0,0,463.6,498.6Z" fill="#fff"/>
        <path id="Tracé_99" data-name="Tracé 99" d="M463.6,498.6h0a3.448,3.448,0,0,0,2.4-4.2l-1.2-4.5a3.448,3.448,0,0,0-4.2-2.4h0a3.448,3.448,0,0,0-2.4,4.2l1.2,4.5A3.4,3.4,0,0,0,463.6,498.6Z" fill="#fff"/>
        <path id="Tracé_100" data-name="Tracé 100" d="M452.4,501.7h0a3.448,3.448,0,0,0,2.4-4.2l-1.2-4.5a3.448,3.448,0,0,0-4.2-2.4h0a3.448,3.448,0,0,0-2.4,4.2l1.2,4.5A3.358,3.358,0,0,0,452.4,501.7Z" fill="#fff"/>
        <path id="Tracé_101" data-name="Tracé 101" d="M441.1,504.8h0a3.448,3.448,0,0,0,2.4-4.2l-1.2-4.5a3.448,3.448,0,0,0-4.2-2.4h0a3.448,3.448,0,0,0-2.4,4.2l1.2,4.5A3.448,3.448,0,0,0,441.1,504.8Z" fill="#fff"/>
        <path id="Tracé_102" data-name="Tracé 102" d="M429.9,507.8h0a3.448,3.448,0,0,0,2.4-4.2l-1.2-4.5a3.448,3.448,0,0,0-4.2-2.4h0a3.448,3.448,0,0,0-2.4,4.2l1.2,4.5A3.448,3.448,0,0,0,429.9,507.8Z" fill="#fff"/>
        <path id="Tracé_103" data-name="Tracé 103" d="M418.7,510.9h0a3.448,3.448,0,0,0,2.4-4.2l-1.2-4.5a3.448,3.448,0,0,0-4.2-2.4h0a3.448,3.448,0,0,0-2.4,4.2l1.2,4.5A3.448,3.448,0,0,0,418.7,510.9Z" fill="#fff"/>
        <path id="Tracé_104" data-name="Tracé 104" d="M407.5,513.9h0a3.448,3.448,0,0,0,2.4-4.2l-1.2-4.5a3.448,3.448,0,0,0-4.2-2.4h0a3.448,3.448,0,0,0-2.4,4.2l1.2,4.5A3.37,3.37,0,0,0,407.5,513.9Z" fill="#fff"/>
        <path id="Tracé_105" data-name="Tracé 105" d="M396.3,517h0a3.448,3.448,0,0,0,2.4-4.2l-1.2-4.5a3.448,3.448,0,0,0-4.2-2.4h0a3.448,3.448,0,0,0-2.4,4.2l1.2,4.5A3.448,3.448,0,0,0,396.3,517Z" fill="#fff"/>
        <path id="Tracé_106" data-name="Tracé 106" d="M396.2,517h0a3.448,3.448,0,0,0,2.4-4.2l-1.2-4.5a3.448,3.448,0,0,0-4.2-2.4h0a3.448,3.448,0,0,0-2.4,4.2l1.2,4.5A3.37,3.37,0,0,0,396.2,517Z" fill="#fff"/>
        <path id="Tracé_107" data-name="Tracé 107" d="M385,520.1h0a3.448,3.448,0,0,0,2.4-4.2l-1.2-4.5A3.448,3.448,0,0,0,382,509h0a3.448,3.448,0,0,0-2.4,4.2l1.2,4.5A3.448,3.448,0,0,0,385,520.1Z" fill="#fff"/>
        <path id="Tracé_108" data-name="Tracé 108" d="M385,520.1h0a3.448,3.448,0,0,0,2.4-4.2l-1.2-4.5A3.448,3.448,0,0,0,382,509h0a3.448,3.448,0,0,0-2.4,4.2l1.2,4.5A3.448,3.448,0,0,0,385,520.1Z" fill="#fff"/>
        <path id="Tracé_109" data-name="Tracé 109" d="M373.8,523.2h0a3.448,3.448,0,0,0,2.4-4.2l-1.2-4.5a3.448,3.448,0,0,0-4.2-2.4h0a3.448,3.448,0,0,0-2.4,4.2l1.2,4.5A3.448,3.448,0,0,0,373.8,523.2Z" fill="#fff"/>
        <path id="Tracé_110" data-name="Tracé 110" d="M362.6,526.2h0A3.448,3.448,0,0,0,365,522l-1.2-4.5a3.448,3.448,0,0,0-4.2-2.4h0a3.448,3.448,0,0,0-2.4,4.2l1.2,4.5A3.37,3.37,0,0,0,362.6,526.2Z" fill="#fff"/>
        <path id="Tracé_111" data-name="Tracé 111" d="M351.4,529.3h0a3.448,3.448,0,0,0,2.4-4.2l-1.2-4.5a3.448,3.448,0,0,0-4.2-2.4h0a3.448,3.448,0,0,0-2.4,4.2l1.2,4.5A3.4,3.4,0,0,0,351.4,529.3Z" fill="#fff"/>
        <path id="Tracé_112" data-name="Tracé 112" d="M340.2,532.4h0a3.448,3.448,0,0,0,2.4-4.2l-1.2-4.5a3.448,3.448,0,0,0-4.2-2.4h0a3.448,3.448,0,0,0-2.4,4.2L336,530A3.358,3.358,0,0,0,340.2,532.4Z" fill="#fff"/>
        <path id="Tracé_113" data-name="Tracé 113" d="M396.2,517h0a3.448,3.448,0,0,0,2.4-4.2l-1.2-4.5a3.448,3.448,0,0,0-4.2-2.4h0a3.448,3.448,0,0,0-2.4,4.2l1.2,4.5A3.37,3.37,0,0,0,396.2,517Z" fill="#fff"/>
        <path id="Tracé_114" data-name="Tracé 114" d="M385,520.1h0a3.448,3.448,0,0,0,2.4-4.2l-1.2-4.5A3.448,3.448,0,0,0,382,509h0a3.448,3.448,0,0,0-2.4,4.2l1.2,4.5A3.448,3.448,0,0,0,385,520.1Z" fill="#fff"/>
        <path id="Tracé_115" data-name="Tracé 115" d="M385,520.1h0a3.448,3.448,0,0,0,2.4-4.2l-1.2-4.5A3.448,3.448,0,0,0,382,509h0a3.448,3.448,0,0,0-2.4,4.2l1.2,4.5A3.448,3.448,0,0,0,385,520.1Z" fill="#fff"/>
        <path id="Tracé_116" data-name="Tracé 116" d="M373.8,523.2h0a3.448,3.448,0,0,0,2.4-4.2l-1.2-4.5a3.448,3.448,0,0,0-4.2-2.4h0a3.448,3.448,0,0,0-2.4,4.2l1.2,4.5A3.448,3.448,0,0,0,373.8,523.2Z" fill="#fff"/>
        <path id="Tracé_117" data-name="Tracé 117" d="M362.6,526.2h0A3.448,3.448,0,0,0,365,522l-1.2-4.5a3.448,3.448,0,0,0-4.2-2.4h0a3.448,3.448,0,0,0-2.4,4.2l1.2,4.5A3.37,3.37,0,0,0,362.6,526.2Z" fill="#fff"/>
        <path id="Tracé_118" data-name="Tracé 118" d="M351.4,529.3h0a3.448,3.448,0,0,0,2.4-4.2l-1.2-4.5a3.448,3.448,0,0,0-4.2-2.4h0a3.448,3.448,0,0,0-2.4,4.2l1.2,4.5A3.4,3.4,0,0,0,351.4,529.3Z" fill="#fff"/>
        <path id="Tracé_119" data-name="Tracé 119" d="M340.2,532.4h0a3.448,3.448,0,0,0,2.4-4.2l-1.2-4.5a3.448,3.448,0,0,0-4.2-2.4h0a3.448,3.448,0,0,0-2.4,4.2L336,530A3.358,3.358,0,0,0,340.2,532.4Z" fill="#fff"/>
      </g>
      <g id="Groupe_13" data-name="Groupe 13">
        <path id="Tracé_120" data-name="Tracé 120" d="M306.7,560a6.959,6.959,0,0,1-3.3-4.2l-8-29.1a6.579,6.579,0,0,1,.7-5.3,6.959,6.959,0,0,1,4.2-3.3l16.5-4.5a6.579,6.579,0,0,1,5.3.7,6.959,6.959,0,0,1,3.3,4.2l8,29.1a6.579,6.579,0,0,1-.7,5.3,6.959,6.959,0,0,1-4.2,3.3L312,560.7a5.537,5.537,0,0,1-1.8.2A7.018,7.018,0,0,1,306.7,560Zm20.9-7.1a3.594,3.594,0,0,0,2.5-4.4l-8-29.1a3.262,3.262,0,0,0-1.7-2.1,3.2,3.2,0,0,0-2.7-.3l-16.5,4.5a3.594,3.594,0,0,0-2.5,4.4l8,29.1a3.262,3.262,0,0,0,1.7,2.1,3.2,3.2,0,0,0,2.7.3Z" fill="#cdd5d7"/>
      </g>
      <path id="Tracé_121" data-name="Tracé 121" d="M736.5,439s-88.3,125.9-138,137.4l-55.2,15.1L608.6,474Z" fill="#fff"/>
      <g id="Groupe_14" data-name="Groupe 14">
        <line id="Ligne_3" data-name="Ligne 3" x1="128.5" y2="33.5" transform="translate(788.5 505)" fill="none" stroke="#2a94f4" stroke-miterlimit="10" stroke-width="3"/>
        <line id="Ligne_4" data-name="Ligne 4" x1="105.5" y2="27.5" transform="translate(780.5 532)" fill="none" stroke="#2a94f4" stroke-miterlimit="10" stroke-width="3"/>
        <line id="Ligne_5" data-name="Ligne 5" x1="105.5" y2="27.5" transform="translate(834.5 482)" fill="none" stroke="#2a94f4" stroke-miterlimit="10" stroke-width="3"/>
        <line id="Ligne_6" data-name="Ligne 6" x1="24.5" y2="6.5" transform="translate(752.5 541)" fill="none" stroke="#2a94f4" stroke-miterlimit="10" stroke-width="3"/>
      </g>
      <g id="Groupe_15" data-name="Groupe 15">
        <line id="Ligne_7" data-name="Ligne 7" x1="128.5" y2="33.5" transform="translate(355.5 330)" fill="none" stroke="#2a94f4" stroke-miterlimit="10" stroke-width="3"/>
        <line id="Ligne_8" data-name="Ligne 8" x1="105.5" y2="27.5" transform="translate(347.5 357)" fill="none" stroke="#2a94f4" stroke-miterlimit="10" stroke-width="3"/>
        <line id="Ligne_9" data-name="Ligne 9" x1="105.5" y2="27.5" transform="translate(401.5 307)" fill="none" stroke="#2a94f4" stroke-miterlimit="10" stroke-width="3"/>
        <line id="Ligne_10" data-name="Ligne 10" x1="24.5" y2="6.5" transform="translate(319.5 366)" fill="none" stroke="#2a94f4" stroke-miterlimit="10" stroke-width="3"/>
      </g>
    </g>
  </g>
</svg>
