<svg xmlns="http://www.w3.org/2000/svg" width="76.5" height="24" viewBox="0 0 76.5 24">
  <line id="Ligne_1" data-name="Ligne 1" x2="54" transform="translate(2.5 12)" fill="none" stroke="#707070" stroke-linecap="round" stroke-width="5"/>
  <g id="Polygone_1" data-name="Polygone 1" transform="translate(76.5) rotate(90)" fill="#707070">
    <path d="M 22.27681922912598 20.5000057220459 L 1.723180055618286 20.5000057220459 C 1.463299989700317 20.5000057220459 1.334179997444153 20.32584571838379 1.290729999542236 20.2509651184082 C 1.247269988059998 20.17608451843262 1.160130023956299 19.97756576538086 1.289059996604919 19.7519359588623 L 11.56587982177734 1.767495274543762 C 11.69581031799316 1.540115237236023 11.91275978088379 1.515565276145935 12 1.515565276145935 C 12.08724021911621 1.515565276145935 12.30418968200684 1.540115237236023 12.43412017822266 1.767495274543762 L 22.71093940734863 19.7519359588623 C 22.83987045288086 19.97756576538086 22.75272941589355 20.17608451843262 22.70927047729492 20.2509651184082 C 22.66581916809082 20.32584571838379 22.53669929504395 20.5000057220459 22.27681922912598 20.5000057220459 Z" stroke="none"/>
    <path d="M 12 2.015565872192383 L 1.723180770874023 19.99999618530273 L 22.27681922912598 19.99999618530273 L 12 2.015565872192383 M 12 1.015560150146484 C 12.33814716339111 1.015560150146484 12.67629528045654 1.183515548706055 12.86824035644531 1.519424438476562 L 23.14505958557129 19.50385475158691 C 23.52601051330566 20.1705150604248 23.04463958740234 20.99999618530273 22.27681922912598 20.99999618530273 L 1.723180770874023 20.99999618530273 C 0.9553604125976562 20.99999618530273 0.4739894866943359 20.1705150604248 0.8549404144287109 19.50385475158691 L 11.13175964355469 1.519424438476562 C 11.32370471954346 1.183515548706055 11.66185283660889 1.015560150146484 12 1.015560150146484 Z" stroke="none" fill="#707070"/>
  </g>
</svg>
